<?xml version="1.0" encoding="UTF-8"?>
<svg xmlns="http://www.w3.org/2000/svg" xmlns:xlink="http://www.w3.org/1999/xlink" width="193pt" height="193pt" viewBox="0 0 193 193" version="1.1">
<g id="surface1">
<path style=" stroke:none;fill-rule:evenodd;fill:rgb(13.699341%,12.199402%,12.5%);fill-opacity:1;" d="M 0 0.242188 L 192.757813 0.242188 L 192.757813 193 L 0 193 L 0 0.242188 "/>
<path style=" stroke:none;fill-rule:evenodd;fill:rgb(88.598633%,25.498962%,20.399475%);fill-opacity:1;" d="M 123.597656 83.324219 L 96.328125 63.78125 C 96.324219 63.78125 84.296875 74.683594 70.003906 79.144531 L 104.5625 104.410156 L 103.273438 105.382813 L 90.957031 96.507813 C 90.957031 96.507813 82.832031 89.5625 70.285156 98.597656 L 96.910156 117.5 C 96.910156 117.5 109.007813 107.113281 123.75 102.070313 L 89.128906 76.609375 L 90.414063 75.640625 L 104.535156 86.058594 C 104.535156 86.058594 112.082031 92.554688 123.597656 83.324219 "/>
<path style=" stroke:none;fill-rule:evenodd;fill:rgb(88.598633%,25.498962%,20.399475%);fill-opacity:1;" d="M 41.394531 66.925781 C 41.394531 66.925781 32.324219 77.691406 16.742188 81.191406 L 16.644531 103.992188 C 16.644531 103.992188 17.753906 115.652344 31.730469 117.304688 L 31.6875 80.914063 L 35.738281 78.269531 L 61.335938 96.335938 L 61.207031 97.882813 L 50.441406 90.425781 C 50.441406 90.425781 43.054688 84.914063 32.480469 92.085938 C 32.0625 92.367188 31.644531 92.671875 31.21875 92.992188 L 54.28125 108.953125 C 54.28125 108.953125 61.8125 104.5 67.367188 102.800781 L 67.246094 84.878906 L 41.394531 66.925781 "/>
<path style=" stroke:none;fill-rule:evenodd;fill:rgb(88.598633%,25.498962%,20.399475%);fill-opacity:1;" d="M 176.496094 84.726563 L 176.300781 102.664063 C 168.523438 104.457031 151.183594 117.613281 151.183594 117.613281 L 126.464844 100.074219 L 126.464844 81.136719 C 143.011719 76.753906 151.785156 66.984375 151.785156 66.984375 Z M 146.003906 78.742188 L 141.617188 81.335938 L 141.617188 94.292969 L 156.5625 105.855469 L 161.347656 103.261719 L 161.546875 90.109375 L 146.003906 78.742188 "/>
<path style=" stroke:none;fill-rule:evenodd;fill:rgb(88.598633%,25.498962%,20.399475%);fill-opacity:1;" d="M 24.570313 121.851563 L 27.355469 121.851563 L 27.355469 129.230469 L 24.570313 129.230469 L 24.570313 121.851563 "/>
<path style=" stroke:none;fill-rule:evenodd;fill:rgb(88.598633%,25.498962%,20.399475%);fill-opacity:1;" d="M 16.257813 121.847656 L 21.542969 121.847656 C 23.074219 121.847656 24.144531 122.101563 24.144531 124.136719 C 24.144531 126.039063 23.113281 126.722656 21.78125 126.722656 L 18.925781 126.722656 L 18.925781 129.234375 L 16.257813 129.234375 Z M 18.925781 124.566406 L 19.472656 124.566406 C 20.421875 124.566406 21.449219 124.691406 21.449219 124.1875 C 21.449219 123.90625 20.5 123.878906 19.734375 123.878906 L 18.925781 123.878906 L 18.925781 124.566406 "/>
<path style=" stroke:none;fill-rule:evenodd;fill:rgb(88.598633%,25.498962%,20.399475%);fill-opacity:1;" d="M 70.328125 125.515625 L 70.332031 125.515625 L 70.328125 125.515625 C 70.328125 125.515625 70.328125 125.511719 70.328125 125.511719 C 69.429688 124.707031 66.1875 124.609375 65.808594 124.175781 C 65.738281 124.085938 65.691406 123.980469 65.691406 123.859375 C 65.691406 123.304688 66.097656 123.335938 66.675781 123.335938 C 67.042969 123.335938 67.269531 123.363281 67.472656 123.515625 C 67.652344 123.648438 67.601563 123.703125 67.621094 123.992188 L 70.785156 123.992188 C 70.730469 122.714844 70.527344 121.71875 66.933594 121.71875 C 63.921875 121.71875 62.679688 122.65625 62.679688 124.019531 C 62.679688 124.6875 63.058594 125.160156 63.316406 125.398438 L 63.3125 125.398438 C 63.3125 125.398438 63.316406 125.398438 63.316406 125.402344 C 64.214844 126.207031 67.457031 126.304688 67.832031 126.738281 C 67.90625 126.828125 67.953125 126.929688 67.953125 127.054688 C 67.953125 127.609375 67.542969 127.578125 66.96875 127.578125 C 66.601563 127.578125 66.375 127.550781 66.167969 127.394531 C 65.992188 127.265625 66.042969 127.210938 66.019531 126.925781 L 62.859375 126.925781 C 62.910156 128.199219 63.117188 129.195313 66.710938 129.195313 C 69.722656 129.195313 70.964844 128.257813 70.964844 126.894531 C 70.964844 126.230469 70.585938 125.753906 70.328125 125.515625 "/>
<path style=" stroke:none;fill-rule:evenodd;fill:rgb(88.598633%,25.498962%,20.399475%);fill-opacity:1;" d="M 59.84375 125.484375 C 59.84375 125.484375 59.84375 125.484375 59.839844 125.480469 C 58.957031 124.667969 55.765625 124.570313 55.394531 124.128906 C 55.324219 124.042969 55.28125 123.9375 55.28125 123.8125 C 55.28125 123.257813 55.679688 123.285156 56.25 123.285156 C 56.609375 123.285156 56.832031 123.3125 57.03125 123.46875 C 57.207031 123.597656 57.160156 123.65625 57.179688 123.945313 L 60.292969 123.945313 C 60.238281 122.65625 60.039063 121.652344 56.503906 121.652344 C 53.539063 121.652344 52.316406 122.601563 52.316406 123.972656 C 52.316406 124.644531 52.6875 125.125 52.941406 125.363281 C 52.941406 125.363281 52.941406 125.363281 52.941406 125.367188 L 52.945313 125.367188 C 53.824219 126.183594 57.015625 126.28125 57.386719 126.71875 C 57.457031 126.808594 57.503906 126.910156 57.503906 127.035156 C 57.503906 127.59375 57.101563 127.5625 56.53125 127.5625 C 56.171875 127.5625 55.949219 127.535156 55.75 127.382813 C 55.574219 127.25 55.621094 127.191406 55.605469 126.902344 L 52.488281 126.902344 C 52.542969 128.191406 52.746094 129.195313 56.28125 129.195313 C 59.246094 129.195313 60.46875 128.246094 60.46875 126.875 C 60.46875 126.203125 60.097656 125.722656 59.84375 125.484375 "/>
<path style=" stroke:none;fill-rule:evenodd;fill:rgb(88.598633%,25.498962%,20.399475%);fill-opacity:1;" d="M 80.613281 127.203125 L 84.273438 123.691406 L 80.84375 123.691406 L 80.84375 121.8125 L 88.332031 121.8125 L 88.328125 123.691406 L 84.367188 127.148438 L 88.480469 127.148438 L 88.480469 129.195313 L 80.613281 129.195313 L 80.613281 127.203125 "/>
<path style=" stroke:none;fill-rule:evenodd;fill:rgb(88.598633%,25.498962%,20.399475%);fill-opacity:1;" d="M 89.53125 121.824219 L 92.222656 121.824219 L 92.222656 125.300781 C 92.222656 126.679688 92.664063 127.109375 93.507813 127.109375 C 94.351563 127.109375 94.789063 126.679688 94.789063 125.300781 L 94.789063 121.824219 L 97.429688 121.824219 L 97.429688 126.042969 C 97.429688 127.183594 97.230469 127.664063 96.796875 128.15625 C 96.128906 128.914063 94.972656 129.234375 93.480469 129.234375 C 91.984375 129.234375 90.832031 128.914063 90.164063 128.15625 C 89.730469 127.664063 89.53125 127.183594 89.53125 126.042969 L 89.53125 121.824219 "/>
<path style=" stroke:none;fill-rule:evenodd;fill:rgb(88.598633%,25.498962%,20.399475%);fill-opacity:1;" d="M 71.808594 121.824219 L 74.503906 121.824219 L 74.503906 125.28125 C 74.503906 126.652344 74.945313 127.085938 75.789063 127.085938 C 76.628906 127.085938 77.070313 126.652344 77.070313 125.28125 L 77.070313 121.824219 L 79.710938 121.824219 L 79.710938 126.019531 C 79.710938 127.15625 79.507813 127.628906 79.078125 128.121094 C 78.40625 128.875 77.253906 129.195313 75.761719 129.195313 C 74.265625 129.195313 73.113281 128.875 72.441406 128.121094 C 72.011719 127.628906 71.808594 127.15625 71.808594 126.019531 L 71.808594 121.824219 "/>
<path style=" stroke:none;fill-rule:evenodd;fill:rgb(88.598633%,25.498962%,20.399475%);fill-opacity:1;" d="M 106.984375 121.835938 L 109.769531 121.835938 L 109.769531 129.195313 L 106.984375 129.195313 L 106.984375 121.835938 "/>
<path style=" stroke:none;fill-rule:evenodd;fill:rgb(88.598633%,25.498962%,20.399475%);fill-opacity:1;" d="M 28.496094 121.898438 L 35.441406 121.898438 L 35.441406 123.773438 L 31.445313 123.773438 L 31.445313 124.585938 L 34.644531 124.585938 L 34.644531 126.335938 L 31.445313 126.335938 L 31.445313 127.316406 L 35.480469 127.316406 L 35.480469 129.234375 L 28.496094 129.234375 L 28.496094 121.898438 "/>
<path style=" stroke:none;fill-rule:evenodd;fill:rgb(88.598633%,25.498962%,20.399475%);fill-opacity:1;" d="M 44.839844 121.898438 L 51.785156 121.898438 L 51.785156 123.773438 L 47.789063 123.773438 L 47.789063 124.585938 L 50.988281 124.585938 L 50.988281 126.335938 L 47.789063 126.335938 L 47.789063 127.316406 L 51.828125 127.316406 L 51.828125 129.234375 L 44.839844 129.234375 L 44.839844 121.898438 "/>
<path style=" stroke:none;fill-rule:evenodd;fill:rgb(88.598633%,25.498962%,20.399475%);fill-opacity:1;" d="M 155.726563 121.851563 L 158.511719 121.851563 L 158.511719 129.230469 L 155.726563 129.230469 L 155.726563 121.851563 "/>
<path style=" stroke:none;fill-rule:evenodd;fill:rgb(88.598633%,25.498962%,20.399475%);fill-opacity:1;" d="M 142.769531 121.851563 L 145.554688 121.851563 L 145.554688 129.230469 L 142.769531 129.230469 L 142.769531 121.851563 "/>
<path style=" stroke:none;fill-rule:evenodd;fill:rgb(88.598633%,25.498962%,20.399475%);fill-opacity:1;" d="M 169.019531 121.898438 L 175.96875 121.898438 L 175.96875 123.773438 L 171.972656 123.773438 L 171.972656 124.585938 L 175.164063 124.585938 L 175.164063 126.335938 L 171.972656 126.335938 L 171.972656 127.316406 L 176.007813 127.316406 L 176.007813 129.234375 L 169.019531 129.234375 L 169.019531 121.898438 "/>
<path style=" stroke:none;fill-rule:evenodd;fill:rgb(88.598633%,25.498962%,20.399475%);fill-opacity:1;" d="M 133.960938 121.859375 L 138.5625 121.859375 C 140.332031 121.859375 141.421875 122.257813 141.421875 123.902344 C 141.421875 124.878906 140.835938 125.492188 140.027344 125.65625 L 140.027344 125.761719 C 140.652344 125.777344 141.171875 126.039063 141.28125 126.785156 L 141.628906 129.265625 L 138.90625 129.265625 L 138.683594 127.617188 C 138.554688 126.703125 138.4375 126.578125 137.507813 126.578125 L 136.683594 126.578125 L 136.683594 129.265625 L 133.960938 129.265625 Z M 136.683594 125.144531 L 137.722656 125.144531 C 138.304688 125.144531 138.753906 124.9375 138.753906 124.238281 C 138.753906 123.582031 138.339844 123.359375 137.675781 123.359375 L 136.683594 123.359375 L 136.683594 125.144531 "/>
<path style=" stroke:none;fill-rule:evenodd;fill:rgb(88.598633%,25.498962%,20.399475%);fill-opacity:1;" d="M 114.316406 121.859375 L 117.601563 121.859375 C 119.414063 121.859375 120.585938 122.058594 121.421875 123.082031 C 121.867188 123.628906 122.171875 124.519531 122.171875 125.625 C 122.171875 126.710938 121.878906 127.769531 121.339844 128.28125 C 120.617188 128.980469 119.9375 129.265625 118.042969 129.265625 L 114.316406 129.265625 Z M 116.894531 127.585938 L 117.609375 127.585938 C 118.785156 127.585938 119.488281 126.949219 119.488281 125.5625 C 119.488281 124.175781 118.785156 123.542969 117.609375 123.542969 L 116.894531 123.542969 L 116.894531 127.585938 "/>
<path style=" stroke:none;fill-rule:evenodd;fill:rgb(88.598633%,25.498962%,20.399475%);fill-opacity:1;" d="M 132.324219 128.179688 C 131.664063 128.949219 130.601563 129.464844 129.019531 129.464844 C 126.019531 129.464844 124.914063 127.78125 124.914063 125.5625 C 124.914063 124.128906 125.390625 123.09375 126.097656 122.488281 C 126.683594 121.984375 127.4375 121.667969 129.019531 121.667969 C 132.019531 121.667969 133.125 123.351563 133.125 125.5625 C 133.125 126.703125 132.835938 127.59375 132.324219 128.179688 Z M 129.019531 123.351563 C 128.171875 123.351563 127.550781 124.046875 127.550781 125.5625 C 127.550781 127.085938 128.171875 127.78125 129.019531 127.78125 C 129.867188 127.78125 130.488281 127.085938 130.488281 125.5625 C 130.488281 124.046875 129.867188 123.351563 129.019531 123.351563 "/>
<path style=" stroke:none;fill-rule:evenodd;fill:rgb(88.598633%,25.498962%,20.399475%);fill-opacity:1;" d="M 152.019531 124.117188 C 151.980469 123.921875 151.875 123.699219 151.683594 123.523438 C 151.484375 123.351563 151.195313 123.226563 150.769531 123.226563 C 149.625 123.226563 148.984375 124.117188 148.984375 125.449219 C 148.984375 126.878906 149.550781 127.902344 150.886719 127.902344 C 151.46875 127.902344 151.894531 127.796875 152.128906 127.648438 L 152.128906 126.519531 L 150.574219 126.519531 L 150.574219 124.957031 L 154.816406 124.957031 L 154.816406 128.867188 C 153.5625 129.207031 151.902344 129.464844 150.496094 129.464844 C 147.285156 129.464844 146.296875 127.84375 146.296875 125.65625 C 146.296875 122.875 147.984375 121.667969 150.796875 121.667969 C 153.113281 121.667969 154.777344 122.25 154.816406 124.117188 L 152.019531 124.117188 "/>
<path style=" stroke:none;fill-rule:evenodd;fill:rgb(88.598633%,25.498962%,20.399475%);fill-opacity:1;" d="M 159.710938 121.859375 L 163.550781 121.859375 L 165.351563 126.402344 L 165.375 126.402344 L 165.375 121.859375 L 167.953125 121.859375 L 167.953125 129.265625 L 164.234375 129.265625 L 162.449219 125.039063 L 162.4375 125.039063 L 162.4375 129.265625 L 159.710938 129.265625 L 159.710938 121.859375 "/>
<path style=" stroke:none;fill-rule:evenodd;fill:rgb(88.598633%,25.498962%,20.399475%);fill-opacity:1;" d="M 41.125 124.609375 C 41.054688 123.699219 40.730469 123.285156 40.035156 123.285156 C 39.03125 123.285156 38.691406 124.332031 38.691406 125.5625 C 38.691406 126.796875 39.03125 127.84375 40.035156 127.84375 C 40.816406 127.84375 41.199219 127.402344 41.222656 126.445313 L 43.859375 126.445313 C 43.839844 127.113281 43.785156 127.757813 43.304688 128.3125 C 42.617188 129.113281 41.410156 129.464844 40.09375 129.464844 C 37.019531 129.464844 36.007813 127.933594 36.007813 125.5625 C 36.007813 123.8125 36.660156 121.667969 40.09375 121.667969 C 41.632813 121.667969 42.703125 122.015625 43.238281 122.628906 C 43.621094 123.070313 43.746094 123.523438 43.753906 124.609375 L 41.125 124.609375 "/>
<path style=" stroke:none;fill-rule:evenodd;fill:rgb(88.598633%,25.498962%,20.399475%);fill-opacity:1;" d="M 122.511719 121.949219 L 122.484375 124.523438 L 123.828125 124.523438 L 123.828125 121.933594 L 122.511719 121.949219 "/>
<path style=" stroke:none;fill-rule:evenodd;fill:rgb(88.598633%,25.498962%,20.399475%);fill-opacity:1;" d="M 32.984375 121.300781 L 31.488281 121.203125 L 29.597656 119.605469 L 31.789063 119.605469 L 32.984375 121.300781 "/>
<path style=" stroke:none;fill-rule:evenodd;fill:rgb(88.598633%,25.498962%,20.399475%);fill-opacity:1;" d="M 100.976563 124.199219 L 103.128906 121.835938 L 106.179688 121.835938 L 103.8125 125.15625 L 106.441406 129.195313 L 103.332031 129.195313 L 100.976563 126.132813 L 100.976563 129.195313 L 98.5 129.195313 L 98.5 121.835938 L 100.976563 121.835938 L 100.976563 124.199219 "/>
</g>
</svg>
